<svg xmlns="http://www.w3.org/2000/svg" viewBox="0 0 263.97 210.2"><defs><style>.cls-1{fill:#e5ab83;}.cls-2{fill:#3f2115;}.cls-3{fill:#e8c328;}.cls-4{fill:#ed8348;}</style></defs><g id="Buns"><rect class="cls-1" x="19.36" y="177.94" width="225.25" height="32.26" rx="0.68"/><path class="cls-1" d="M291.57,128.37v29.36a2.89,2.89,0,0,1-2.9,2.89H69.21a2.89,2.89,0,0,1-2.89-2.89V128.37C66.48,92.83,116.86,64,178.94,64S291.4,92.83,291.57,128.37Z" transform="translate(-46.96 -64.04)"/></g><g id="Lager_3" data-name="Lager 3"><rect class="cls-2" x="22.57" y="147.89" width="218.67" height="20.27" rx="2.43"/></g><g id="Lager_9" data-name="Lager 9"><path class="cls-3" d="M47,208.41c6.82-4.87,16.13-18.18,137.55-18.18s126.41,21.7,126.41,21.7C311.93,202.83,108.78,192.69,47,208.41Z" transform="translate(-46.96 -64.04)"/></g><g id="Lager_5" data-name="Lager 5"><path class="cls-4" d="M277.21,173.29c-26.65-12.93-59.47.1-89.91-1.22-17.72-.77-34.56-4.39-52.23-5.11a77.39,77.39,0,0,0-21.68,2c-3.33.83-19.67,7.47-22.29,4.75-7.22-7.5-28.07-.86-20.85,6.64s23.24,8.81,36.68,5.58c7.56-1.81,14-5.29,22.32-5.92,8.73-.66,19.09,1.54,27.45,2.53,17.83,2.12,36.12,3.74,54.33,2.21,13.76-1.16,36.67-8.22,49.11-2.18C271.71,188.2,288.85,178.93,277.21,173.29Z" transform="translate(-46.96 -64.04)"/></g></svg>